<svg xmlns="http://www.w3.org/2000/svg" viewBox="-0.00071907 -0.0010941 93.88 70.99">
	<path d="M73 37.14H69.52l-.99 3.53h3.61c.53-.04 1.08-.06 1.65-.55.37-.28.67-.72.8-1.18.48-1.7-1.05-1.78-1.58-1.8Zm1.78-6.9H71.46l-.87 3.09h3.2c.54 0 1.88 0 2.31-1.52.41-1.5-.81-1.56-1.32-1.58ZM61.71 44.58 66.8 26.39H77.57c1.12.05 3.21.13 4.2 1.47.61.77.69 1.98.36 3.14-.38 1.34-1.26 2.47-2.18 3.19-.63.49-1.15.7-1.82.98.69.21 1.31.39 1.83 1.11.75 1 .59 2.19.34 3.09-.37 1.37-1.18 2.78-2.37 3.71-1.75 1.39-3.65 1.45-5.08 1.5H61.72Zm-25.24-0 5.09-18.19h8.22l-.11 8.4c-.1 1.8-.14 2.21-.34 3.86.96-2.24 1.2-2.7 2.1-4.46l4.24-7.8h8.22L58.8 44.58H53.33l2.94-10.51c.41-1.34.52-1.68 1.06-3.22-.7 1.36-.82 1.62-1.55 2.94L49.74 44.58H45.47l.05-10.23c.02-1.47 0-1.5.1-3.4-.23 1.14-.29 1.42-.58 2.45L41.91 44.58H36.45ZM24.68 26.36H39.64l-1.26 4.51H33.77L29.93 44.58H24.19l3.84-13.71H23.41ZM.58 48.95S.24 22.8 33.93 12.63c0 0-26.27 11.87-26.27 33.8 0 11.54 7.77 24.56 31.98 24.56S87.72 51.8 92.4 36.38C97.09 20.96 90.3 9.44 76.19 3.37 60.77-3.25 35.99.18 20.23 11.03-5.28 28.59.58 48.95.58 48.95" fill="#E76F55"/>
</svg>